g Mesh
v -2 2 -1.333333
v -2 2 1.333333
v 2 2 1.333333
v 2 2 -1.333333
v 1.4 -1.866667 1.266667
v 1.4 -1.866667 1.333333
v 1.466667 -1.866667 1.333333
v 1.466667 -1.866667 1.266667
v -2 -2 -1.333333
v 2 -2 -1.333333
v 2 -2 1.333333
v -2 -2 1.333333
v 1.4 -1.8 1.266667
v 1.466667 -1.8 1.266667
v 1.466667 -1.8 1.333333
v 1.4 -1.8 1.333333
v -2 -2 -1.333333
v -2 -2 1.333333
v -2 2 1.333333
v -2 2 -1.333333
v 1.466667 -1.866667 1.266667
v 1.466667 -1.866667 1.333333
v 1.466667 -1.8 1.333333
v 1.466667 -1.8 1.266667
v 1.4 -1.866667 1.266667
v 1.4 -1.8 1.266667
v 1.4 -1.8 1.333333
v 1.4 -1.866667 1.333333
v 2 -2 -1.333333
v 2 2 -1.333333
v 2 2 1.333333
v 2 -2 1.333333
v -2 -2 1.333333
v 2 -2 1.333333
v 2 -1.866667 1.333333
v -2 -1.866667 1.333333
v -2 -1.866667 1.333333
v 1.4 -1.866667 1.333333
v 1.4 2 1.333333
v -2 2 1.333333
v 1.4 -1.866667 1.266667
v 1.466667 -1.866667 1.266667
v 1.466667 -1.8 1.266667
v 1.4 -1.8 1.266667
v 1.4 -1.8 1.333333
v 2 -1.8 1.333333
v 2 2 1.333333
v 1.4 2 1.333333
v 1.466667 -1.866667 1.333333
v 2 -1.866667 1.333333
v 2 -1.8 1.333333
v 1.466667 -1.8 1.333333
v -2 -2 -1.333333
v -2 2 -1.333333
v 2 2 -1.333333
v 2 -2 -1.333333

vn 0 1 0
vn 0 1 0
vn 0 1 0
vn 0 1 0
vn 0 0.9999999 0
vn 0 0.9999999 0
vn 0 0.9999999 0
vn 0 0.9999999 0
vn 0 -1 0
vn 0 -1 0
vn 0 -1 0
vn 0 -1 0
vn 0 -0.9999999 0
vn 0 -0.9999999 0
vn 0 -0.9999999 0
vn 0 -0.9999999 0
vn -1 0 0
vn -1 0 0
vn -1 0 0
vn -1 0 0
vn -1 0 0
vn -1 0 0
vn -1 0 0
vn -1 0 0
vn 1 0 0
vn 1 0 0
vn 1 0 0
vn 1 0 0
vn 1 0 0
vn 1 0 0
vn 1 0 0
vn 1 0 0
vn 0 0 1
vn 0 0 1
vn 0 0 1
vn 0 0 1
vn 0 0 1
vn 0 0 1
vn 0 0 1
vn 0 0 1
vn 0 0 1
vn 0 0 1
vn 0 0 1
vn 0 0 1
vn 0 0 1
vn 0 0 1
vn 0 0 1
vn 0 0 1
vn 0 0 1
vn 0 0 1
vn 0 0 1
vn 0 0 1
vn 0 0 -1
vn 0 0 -1
vn 0 0 -1
vn 0 0 -1

vt 0.5898438 0.00390625
vt 0.7460938 0.00390625
vt 0.7460938 0.2382813
vt 0.5898438 0.2382813
vt 0.9179688 0.04296875
vt 0.921875 0.04296875
vt 0.921875 0.046875
vt 0.9179688 0.046875
vt 0.7539063 0.00390625
vt 0.7539063 0.2382813
vt 0.9101563 0.2382813
vt 0.9101563 0.00390625
vt 0.9179688 0.04296875
vt 0.9179688 0.046875
vt 0.921875 0.046875
vt 0.921875 0.04296875
vt 0.4257813 0.00390625
vt 0.5820313 0.00390625
vt 0.5820313 0.2382813
vt 0.4257813 0.2382813
vt 0.9179688 0.04296875
vt 0.921875 0.04296875
vt 0.921875 0.046875
vt 0.9179688 0.046875
vt 0.9179688 0.04296875
vt 0.9179688 0.046875
vt 0.921875 0.046875
vt 0.921875 0.04296875
vt 0.00390625 0.00390625
vt 0.00390625 0.2382813
vt 0.1601563 0.2382813
vt 0.1601563 0.00390625
vt 0.1679688 0.00390625
vt 0.1679688 0.2382813
vt 0.1757813 0.2382813
vt 0.1757813 0.00390625
vt 0.00390625 0.2460938
vt 0.00390625 0.4453125
vt 0.2304688 0.4453125
vt 0.2304688 0.2460938
vt 0.9179688 0.04296875
vt 0.9179688 0.046875
vt 0.921875 0.046875
vt 0.921875 0.04296875
vt 0.2382813 0.2460938
vt 0.2382813 0.28125
vt 0.4609375 0.28125
vt 0.4609375 0.2460938
vt 0.9179688 0.00390625
vt 0.9179688 0.03515625
vt 0.921875 0.03515625
vt 0.921875 0.00390625
vt 0.1835938 0.00390625
vt 0.4179688 0.00390625
vt 0.4179688 0.2382813
vt 0.1835938 0.2382813

usemtl Mesh
usemap Mesh
f 1/1/1 2/2/2 3/3/3
f 1/1/1 3/3/3 4/4/4
f 5/5/5 6/6/6 7/7/7
f 5/5/5 7/7/7 8/8/8
f 9/9/9 10/10/10 11/11/11
f 9/9/9 11/11/11 12/12/12
f 13/13/13 14/14/14 15/15/15
f 13/13/13 15/15/15 16/16/16
f 17/17/17 18/18/18 19/19/19
f 17/17/17 19/19/19 20/20/20
f 21/21/21 22/22/22 23/23/23
f 21/21/21 23/23/23 24/24/24
f 25/25/25 26/26/26 27/27/27
f 25/25/25 27/27/27 28/28/28
f 29/29/29 30/30/30 31/31/31
f 29/29/29 31/31/31 32/32/32
f 33/33/33 34/34/34 35/35/35
f 33/33/33 35/35/35 36/36/36
f 37/37/37 38/38/38 39/39/39
f 37/37/37 39/39/39 40/40/40
f 41/41/41 42/42/42 43/43/43
f 41/41/41 43/43/43 44/44/44
f 45/45/45 46/46/46 47/47/47
f 45/45/45 47/47/47 48/48/48
f 49/49/49 50/50/50 51/51/51
f 49/49/49 51/51/51 52/52/52
f 53/53/53 54/54/54 55/55/55
f 53/53/53 55/55/55 56/56/56
